<svg xmlns="http://www.w3.org/2000/svg" viewBox="-0.8 -1.6 17.6 21.6" fill="none" x="0px" y="0px"><g><g><path d="M9 5.85136e-09V2.43801L12.9309 5.30505L15.2416 4.55135C14.0979 2.11342 11.7686 0.346586 9 5.85136e-09Z" fill="black"/><path d="M7 0V2.43799L3.0691 5.30504L0.758419 4.55134C1.90208 2.11342 4.23136 0.346585 7 0Z" fill="black"/><path d="M0.140799 6.46097C0.0483692 6.9494 0 7.4535 0 7.96893C0 10.2784 0.971039 12.3602 2.5256 13.8252L3.96187 11.8407L2.45254 7.21502L0.140799 6.46097Z" fill="black"/><path d="M4.14278 15.0065C5.28665 15.6397 6.60141 16 8 16C9.3986 16 10.7134 15.6397 11.8572 15.0065L10.3966 12.9883H5.60343L4.14278 15.0065Z" fill="black"/><path d="M13.4744 13.8252C15.029 12.3601 16 10.2784 16 7.96893C16 7.4535 15.9516 6.94941 15.8592 6.46098L13.5474 7.21504L12.0381 11.8406L13.4744 13.8252Z" fill="black"/><path d="M4.42175 6.8002L5.78578 10.9806H10.2142L11.5782 6.8002L7.99999 4.19037L4.42175 6.8002Z" fill="black"/></g></g><text x="0.0" y="18.8" font-size="0.8" font-weight="bold" font-family="Arbeit Regular, Helvetica, Arial-Unicode, Arial, Sans-serif" fill="#000000">Created by PixelBazaar</text><text x="0.0" y="19.6" font-size="0.8" font-weight="bold" font-family="Arbeit Regular, Helvetica, Arial-Unicode, Arial, Sans-serif" fill="#000000">from Noun Project</text></svg>